<?xml version="1.0" encoding="UTF-8"?>
<svg viewBox="0 0 1400 1000" xmlns="http://www.w3.org/2000/svg" role="img" aria-label="Node-link diagram of the classic Risk board, its six continents kept in their world-map positions: North America upper-left, South America lower-left, Europe upper-centre, Africa centre, Asia upper-right, Australia lower-right. 42 territories in 6 colour-coded countries, 83 adjacency edges, dashed sea routes, and two ringed chokepoints."><line x1="140" y1="175" x2="255" y2="150" stroke="#888" stroke-width="1.8"/><line x1="140" y1="175" x2="235" y2="265" stroke="#888" stroke-width="1.8"/><line x1="140" y1="175" x2="1280" y2="165" stroke="#bbb" stroke-width="1.8" stroke-dasharray="5,5"/><line x1="255" y1="150" x2="430" y2="110" stroke="#888" stroke-width="1.8"/><line x1="255" y1="150" x2="235" y2="265" stroke="#888" stroke-width="1.8"/><line x1="255" y1="150" x2="330" y2="255" stroke="#888" stroke-width="1.8"/><line x1="430" y1="110" x2="330" y2="255" stroke="#888" stroke-width="1.8"/><line x1="430" y1="110" x2="430" y2="235" stroke="#888" stroke-width="1.8"/><line x1="430" y1="110" x2="560" y2="180" stroke="#bbb" stroke-width="1.8" stroke-dasharray="5,5"/><line x1="235" y1="265" x2="330" y2="255" stroke="#888" stroke-width="1.8"/><line x1="235" y1="265" x2="260" y2="375" stroke="#888" stroke-width="1.8"/><line x1="330" y1="255" x2="430" y2="235" stroke="#888" stroke-width="1.8"/><line x1="330" y1="255" x2="260" y2="375" stroke="#888" stroke-width="1.8"/><line x1="330" y1="255" x2="375" y2="360" stroke="#888" stroke-width="1.8"/><line x1="430" y1="235" x2="375" y2="360" stroke="#888" stroke-width="1.8"/><line x1="260" y1="375" x2="375" y2="360" stroke="#888" stroke-width="1.8"/><line x1="260" y1="375" x2="300" y2="460" stroke="#888" stroke-width="1.8"/><line x1="375" y1="360" x2="300" y2="460" stroke="#888" stroke-width="1.8"/><line x1="300" y1="460" x2="340" y2="630" stroke="#bbb" stroke-width="1.8" stroke-dasharray="5,5"/><line x1="340" y1="630" x2="320" y2="745" stroke="#888" stroke-width="1.8"/><line x1="340" y1="630" x2="430" y2="730" stroke="#888" stroke-width="1.8"/><line x1="320" y1="745" x2="430" y2="730" stroke="#888" stroke-width="1.8"/><line x1="320" y1="745" x2="360" y2="860" stroke="#888" stroke-width="1.8"/><line x1="430" y1="730" x2="360" y2="860" stroke="#888" stroke-width="1.8"/><line x1="430" y1="730" x2="630" y2="540" stroke="#bbb" stroke-width="1.8" stroke-dasharray="5,5"/><line x1="560" y1="180" x2="700" y2="165" stroke="#888" stroke-width="1.8"/><line x1="560" y1="180" x2="575" y2="300" stroke="#888" stroke-width="1.8"/><line x1="700" y1="165" x2="815" y2="250" stroke="#888" stroke-width="1.8"/><line x1="700" y1="165" x2="575" y2="300" stroke="#888" stroke-width="1.8"/><line x1="700" y1="165" x2="690" y2="295" stroke="#888" stroke-width="1.8"/><line x1="815" y1="250" x2="690" y2="295" stroke="#888" stroke-width="1.8"/><line x1="815" y1="250" x2="705" y2="390" stroke="#888" stroke-width="1.8"/><line x1="815" y1="250" x2="905" y2="250" stroke="#bbb" stroke-width="1.8" stroke-dasharray="5,5"/><line x1="815" y1="250" x2="920" y2="365" stroke="#bbb" stroke-width="1.8" stroke-dasharray="5,5"/><line x1="815" y1="250" x2="855" y2="475" stroke="#bbb" stroke-width="1.8" stroke-dasharray="5,5"/><line x1="575" y1="300" x2="690" y2="295" stroke="#888" stroke-width="1.8"/><line x1="575" y1="300" x2="590" y2="400" stroke="#888" stroke-width="1.8"/><line x1="690" y1="295" x2="590" y2="400" stroke="#888" stroke-width="1.8"/><line x1="690" y1="295" x2="705" y2="390" stroke="#888" stroke-width="1.8"/><line x1="590" y1="400" x2="705" y2="390" stroke="#888" stroke-width="1.8"/><line x1="590" y1="400" x2="630" y2="540" stroke="#bbb" stroke-width="1.8" stroke-dasharray="5,5"/><line x1="705" y1="390" x2="630" y2="540" stroke="#bbb" stroke-width="1.8" stroke-dasharray="5,5"/><line x1="705" y1="390" x2="765" y2="510" stroke="#bbb" stroke-width="1.8" stroke-dasharray="5,5"/><line x1="705" y1="390" x2="855" y2="475" stroke="#bbb" stroke-width="1.8" stroke-dasharray="5,5"/><line x1="630" y1="540" x2="765" y2="510" stroke="#888" stroke-width="1.8"/><line x1="630" y1="540" x2="805" y2="630" stroke="#888" stroke-width="1.8"/><line x1="630" y1="540" x2="695" y2="660" stroke="#888" stroke-width="1.8"/><line x1="765" y1="510" x2="805" y2="630" stroke="#888" stroke-width="1.8"/><line x1="765" y1="510" x2="855" y2="475" stroke="#bbb" stroke-width="1.8" stroke-dasharray="5,5"/><line x1="805" y1="630" x2="695" y2="660" stroke="#888" stroke-width="1.8"/><line x1="805" y1="630" x2="720" y2="800" stroke="#888" stroke-width="1.8"/><line x1="805" y1="630" x2="845" y2="765" stroke="#888" stroke-width="1.8"/><line x1="805" y1="630" x2="855" y2="475" stroke="#bbb" stroke-width="1.8" stroke-dasharray="5,5"/><line x1="695" y1="660" x2="720" y2="800" stroke="#888" stroke-width="1.8"/><line x1="720" y1="800" x2="845" y2="765" stroke="#888" stroke-width="1.8"/><line x1="905" y1="250" x2="1000" y2="195" stroke="#888" stroke-width="1.8"/><line x1="905" y1="250" x2="920" y2="365" stroke="#888" stroke-width="1.8"/><line x1="905" y1="250" x2="1035" y2="390" stroke="#888" stroke-width="1.8"/><line x1="1000" y1="195" x2="1130" y2="130" stroke="#888" stroke-width="1.8"/><line x1="1000" y1="195" x2="1095" y2="230" stroke="#888" stroke-width="1.8"/><line x1="1000" y1="195" x2="1140" y2="335" stroke="#888" stroke-width="1.8"/><line x1="1000" y1="195" x2="1035" y2="390" stroke="#888" stroke-width="1.8"/><line x1="1130" y1="130" x2="1280" y2="165" stroke="#888" stroke-width="1.8"/><line x1="1130" y1="130" x2="1095" y2="230" stroke="#888" stroke-width="1.8"/><line x1="1280" y1="165" x2="1095" y2="230" stroke="#888" stroke-width="1.8"/><line x1="1280" y1="165" x2="1140" y2="335" stroke="#888" stroke-width="1.8"/><line x1="1280" y1="165" x2="1290" y2="320" stroke="#888" stroke-width="1.8"/><line x1="1095" y1="230" x2="1140" y2="335" stroke="#888" stroke-width="1.8"/><line x1="1140" y1="335" x2="1290" y2="320" stroke="#888" stroke-width="1.8"/><line x1="1140" y1="335" x2="1035" y2="390" stroke="#888" stroke-width="1.8"/><line x1="920" y1="365" x2="1035" y2="390" stroke="#888" stroke-width="1.8"/><line x1="920" y1="365" x2="855" y2="475" stroke="#888" stroke-width="1.8"/><line x1="920" y1="365" x2="1010" y2="500" stroke="#888" stroke-width="1.8"/><line x1="1035" y1="390" x2="1010" y2="500" stroke="#888" stroke-width="1.8"/><line x1="1035" y1="390" x2="1130" y2="490" stroke="#888" stroke-width="1.8"/><line x1="855" y1="475" x2="1010" y2="500" stroke="#888" stroke-width="1.8"/><line x1="1010" y1="500" x2="1130" y2="490" stroke="#888" stroke-width="1.8"/><line x1="1130" y1="490" x2="1140" y2="650" stroke="#bbb" stroke-width="1.8" stroke-dasharray="5,5"/><line x1="1140" y1="650" x2="1285" y2="645" stroke="#888" stroke-width="1.8"/><line x1="1140" y1="650" x2="1160" y2="800" stroke="#888" stroke-width="1.8"/><line x1="1285" y1="645" x2="1160" y2="800" stroke="#888" stroke-width="1.8"/><line x1="1285" y1="645" x2="1285" y2="800" stroke="#888" stroke-width="1.8"/><line x1="1160" y1="800" x2="1285" y2="800" stroke="#888" stroke-width="1.8"/><circle cx="300" cy="460" r="22.6" fill="none" stroke="#111" stroke-width="2.9"/><circle cx="1140" cy="650" r="22.6" fill="none" stroke="#111" stroke-width="2.9"/><circle cx="140" cy="175" r="13.3" fill="#e6550d" stroke="#333" stroke-width="1.3"/><circle cx="255" cy="150" r="13.3" fill="#e6550d" stroke="#333" stroke-width="1.3"/><circle cx="430" cy="110" r="13.3" fill="#e6550d" stroke="#333" stroke-width="1.3"/><circle cx="235" cy="265" r="13.3" fill="#e6550d" stroke="#333" stroke-width="1.3"/><circle cx="330" cy="255" r="13.3" fill="#e6550d" stroke="#333" stroke-width="1.3"/><circle cx="430" cy="235" r="13.3" fill="#e6550d" stroke="#333" stroke-width="1.3"/><circle cx="260" cy="375" r="13.3" fill="#e6550d" stroke="#333" stroke-width="1.3"/><circle cx="375" cy="360" r="13.3" fill="#e6550d" stroke="#333" stroke-width="1.3"/><circle cx="300" cy="460" r="13.3" fill="#e6550d" stroke="#333" stroke-width="1.3"/><circle cx="340" cy="630" r="13.3" fill="#31a354" stroke="#333" stroke-width="1.3"/><circle cx="320" cy="745" r="13.3" fill="#31a354" stroke="#333" stroke-width="1.3"/><circle cx="430" cy="730" r="13.3" fill="#31a354" stroke="#333" stroke-width="1.3"/><circle cx="360" cy="860" r="13.3" fill="#31a354" stroke="#333" stroke-width="1.3"/><circle cx="560" cy="180" r="13.3" fill="#3182bd" stroke="#333" stroke-width="1.3"/><circle cx="700" cy="165" r="13.3" fill="#3182bd" stroke="#333" stroke-width="1.3"/><circle cx="815" cy="250" r="13.3" fill="#3182bd" stroke="#333" stroke-width="1.3"/><circle cx="575" cy="300" r="13.3" fill="#3182bd" stroke="#333" stroke-width="1.3"/><circle cx="690" cy="295" r="13.3" fill="#3182bd" stroke="#333" stroke-width="1.3"/><circle cx="590" cy="400" r="13.3" fill="#3182bd" stroke="#333" stroke-width="1.3"/><circle cx="705" cy="390" r="13.3" fill="#3182bd" stroke="#333" stroke-width="1.3"/><circle cx="630" cy="540" r="13.3" fill="#756bb1" stroke="#333" stroke-width="1.3"/><circle cx="765" cy="510" r="13.3" fill="#756bb1" stroke="#333" stroke-width="1.3"/><circle cx="805" cy="630" r="13.3" fill="#756bb1" stroke="#333" stroke-width="1.3"/><circle cx="695" cy="660" r="13.3" fill="#756bb1" stroke="#333" stroke-width="1.3"/><circle cx="720" cy="800" r="13.3" fill="#756bb1" stroke="#333" stroke-width="1.3"/><circle cx="845" cy="765" r="13.3" fill="#756bb1" stroke="#333" stroke-width="1.3"/><circle cx="905" cy="250" r="13.3" fill="#d6616b" stroke="#333" stroke-width="1.3"/><circle cx="1000" cy="195" r="13.3" fill="#d6616b" stroke="#333" stroke-width="1.3"/><circle cx="1130" cy="130" r="13.3" fill="#d6616b" stroke="#333" stroke-width="1.3"/><circle cx="1280" cy="165" r="13.3" fill="#d6616b" stroke="#333" stroke-width="1.3"/><circle cx="1095" cy="230" r="13.3" fill="#d6616b" stroke="#333" stroke-width="1.3"/><circle cx="1140" cy="335" r="13.3" fill="#d6616b" stroke="#333" stroke-width="1.3"/><circle cx="1290" cy="320" r="13.3" fill="#d6616b" stroke="#333" stroke-width="1.3"/><circle cx="920" cy="365" r="13.3" fill="#d6616b" stroke="#333" stroke-width="1.3"/><circle cx="1035" cy="390" r="13.3" fill="#d6616b" stroke="#333" stroke-width="1.3"/><circle cx="855" cy="475" r="13.3" fill="#d6616b" stroke="#333" stroke-width="1.3"/><circle cx="1010" cy="500" r="13.3" fill="#d6616b" stroke="#333" stroke-width="1.3"/><circle cx="1130" cy="490" r="13.3" fill="#d6616b" stroke="#333" stroke-width="1.3"/><circle cx="1140" cy="650" r="13.3" fill="#e7ba52" stroke="#333" stroke-width="1.3"/><circle cx="1285" cy="645" r="13.3" fill="#e7ba52" stroke="#333" stroke-width="1.3"/><circle cx="1160" cy="800" r="13.3" fill="#e7ba52" stroke="#333" stroke-width="1.3"/><circle cx="1285" cy="800" r="13.3" fill="#e7ba52" stroke="#333" stroke-width="1.3"/></svg>